<?xml version="1.0" encoding="utf-8"?>
<!-- Generator: Adobe Illustrator 26.3.1, SVG Export Plug-In . SVG Version: 6.00 Build 0)  -->
<svg version="1.1" id="Capa_1" xmlns="http://www.w3.org/2000/svg" xmlns:xlink="http://www.w3.org/1999/xlink" x="0px" y="0px"
	 viewBox="0 0 595.3 841.9" style="enable-background:new 0 0 595.3 841.9;" xml:space="preserve">
<style type="text/css">
	.st0{fill:none;stroke:#F39200;stroke-miterlimit:10;}
</style>
<path class="st0" d="M205.2,506.8c19.9,28,83.4,41.3,141.7-22.1s60.5-140.2,60.5-140.2s14.9-18.2,17.6-38.6s19.5-50.5,57.6-69.6
	s82.5-26.2,82.5-26.2s-53.6,1.3-96.2,21.7s-51,28.8-51,28.8S346,238,313.2,307.2s23.5,129.5-20.8,155.2
	C248,488.1,179.3,382.6,123,335.1S20.6,262.9,31.2,250c10.6-12.9,117.9-33.3,225.2,71.4s119.7,187.1,16.8,213.3
	s-109.1,20.4-175.1,69.2c-66.1,48.8-12.9,48.3,31-16.4S250.2,380,323,354.6"/>
</svg>
